<svg height="128" viewBox="0 0 128 128" width="128" xmlns="http://www.w3.org/2000/svg"><svg height="236" preserveAspectRatio="xMidYMid meet" transform="matrix(.43644068 0 0 .43644068 35.96836 12.221578)" viewBox="0 0 52 96" width="128" xmlns="http://www.w3.org/2000/svg" xmlns:xlink="http://www.w3.org/1999/xlink"><g transform="translate(.092558 .2595)"><svg height="95.481" viewBox="0 0 51.81488391 95.481" width="51.814884"><svg height="95.481" viewBox="0 0 51.81488391 95.481" width="51.814884"><svg height="95.481" viewBox="0 0 51.81488391 95.481" width="51.814884"><svg height="95.481" viewBox="0 0 51.81488391 95.481" width="51.814884"><svg height="95.481" viewBox="0 0 51.81488391 95.481" width="51.814884"><svg height="95.481" viewBox="0 0 51.81488391 95.481" width="51.814884"><svg enable-background="new 0 0 100 100" height="95.481" version="1.0" viewBox="24.9016299 3.75 50.1971781 92.5" width="51.814884" xmlns="http://www.w3.org/2000/svg" xmlns:xlink="http://www.w3.org/1999/xlink"><path d="m45 26.25c.33 0 .65-.13.88-.37.24-.23.37-.55.37-.88s-.13-.65-.37-.88c-.46-.47-1.3-.47-1.76 0-.24.23-.37.55-.37.88s.13.65.37.89c.23.23.55.36.88.36m9.12-2.13c-.24.23-.37.55-.37.88s.13.65.37.88c.229.24.55.37.88.37s.65-.13.88-.37c.24-.23.37-.55.37-.88s-.13-.65-.37-.89c-.46-.46-1.3-.46-1.76.01m12.13 3.38c0-8.96-7.29-16.25-16.25-16.25s-16.25 7.29-16.25 16.25c0 7.38 4.372 11.746 9 16.369 2.104 2.102 4.279 4.274 6.253 6.885 6.87 9.088 6.869 21.834-.003 30.996a1.25 1.25 0 0 0 2 1.5c7.337-9.783 7.509-23.284.559-33.193 1.821-2.298 3.782-4.281 5.691-6.188 4.628-4.623 9-8.989 9-16.369m-16.25 20.505c-1.789-2.19-3.659-4.083-5.483-5.905-4.619-4.613-8.267-8.257-8.267-14.6 0-7.582 6.168-13.75 13.75-13.75s13.75 6.168 13.75 13.75c0 6.343-3.648 9.987-8.268 14.6-1.823 1.822-3.693 3.715-5.482 5.905m0-19.255c-3.446 0-6.25 2.804-6.25 6.25s2.804 6.25 6.25 6.25c3.445 0 6.25-2.804 6.25-6.25s-2.805-6.25-6.25-6.25m0 10c-2.068 0-3.75-1.682-3.75-3.75s1.682-3.75 3.75-3.75 3.75 1.682 3.75 3.75-1.682 3.75-3.75 3.75m16.773 12.732a1.25 1.25 0 0 0 -.291 1.744c.119.168 11.89 16.972 2.478 31.09-3.939 5.909-11.024 9.434-18.96 9.434-7.935 0-15.022-3.525-18.96-9.434-9.395-14.092 2.358-30.922 2.478-31.092a1.249 1.249 0 0 0 -2.036-1.451c-.13.183-12.881 18.393-2.522 33.931 4.402 6.605 12.268 10.546 21.04 10.546s16.639-3.941 21.04-10.546c10.358-15.538-2.394-33.748-2.522-33.931a1.253 1.253 0 0 0 -1.745-.291m-34.273-5.232a1.25 1.25 0 0 0 .961-2.049c-.485-.585-11.773-14.49-2.421-28.519 3.938-5.906 11.025-9.432 18.96-9.432s15.021 3.526 18.959 9.432c9.354 14.039-1.936 27.934-2.42 28.519a1.25 1.25 0 0 0 1.921 1.6c.131-.157 12.978-15.897 2.58-31.504-4.401-6.605-12.269-10.547-21.04-10.547-8.772 0-16.638 3.942-21.04 10.546-10.397 15.596 2.449 31.347 2.58 31.504.247.297.602.45.96.45m16.44-12.31c-.28.28-.44.67-.44 1.06s.16.78.44 1.06a1.499 1.499 0 1 0 2.121-2.12c-.561-.56-1.571-.56-2.121 0" fill="#f98d67"/></svg></svg></svg></svg></svg></svg></svg><path d="m0 0h51.814884v95.481h-51.814884z" fill="none" visibility="hidden"/></g></svg></svg>