<svg xmlns="http://www.w3.org/2000/svg" version="1.1" xmlns:xlink="http://www.w3.org/1999/xlink" xmlns:svgjs="http://svgjs.dev/svgjs" width="1500" height="549" viewBox="0 0 1500 549"><g transform="matrix(1,0,0,1,-0.9090909090909918,-0.7355023426873686)"><svg viewBox="0 0 396 145" data-background-color="#ffffff" preserveAspectRatio="xMidYMid meet" height="549" width="1500" xmlns="http://www.w3.org/2000/svg" xmlns:xlink="http://www.w3.org/1999/xlink"><g id="tight-bounds" transform="matrix(1,0,0,1,0.2400000000000091,0.1942583600904726)"><svg viewBox="0 0 395.52 144.61148327981905" height="144.61148327981905" width="395.52"><g><svg viewBox="0 0 519.2483706796652 189.84950716680748" height="144.61148327981905" width="395.52"><g transform="matrix(1,0,0,1,0,26.2382459253692)"><svg viewBox="0 0 395.52 137.3730153160691" height="137.3730153160691" width="395.52"><g id="textblocktransform"><svg viewBox="0 0 395.52 137.3730153160691" height="137.3730153160691" width="395.52" id="textblock"><g><svg viewBox="0 0 395.52 87.69346219442865" height="87.69346219442865" width="395.52"><g transform="matrix(1,0,0,1,0,0)"><svg width="395.52" viewBox="4.27 -36.74 214.7 47.6" height="87.69346219442865" data-palette-color="#0c0a0f"><g class="wordmark-text-0" data-fill-palette-color="primary" id="text-0"><path d="M15.14 0.61L15.14 0.61Q13.4 0.61 11.52-0.23 9.64-1.07 7.98-2.56L7.98-2.56 7.81-2.56 7.47 0 4.27 0 4.27-36.74 8.23-36.74 8.23-26.64 8.08-22.05Q9.86-23.56 11.9-24.58 13.94-25.61 16.06-25.61L16.06-25.61Q20.95-25.61 23.49-22.14 26.03-18.68 26.03-12.87L26.03-12.87Q26.03-8.62 24.51-5.6 23-2.59 20.52-0.99 18.04 0.61 15.14 0.61ZM14.53-2.71L14.53-2.71Q17.72-2.71 19.84-5.43 21.95-8.15 21.95-12.82L21.95-12.82Q21.95-17.04 20.36-19.68 18.77-22.31 15.14-22.31L15.14-22.31Q13.5-22.31 11.8-21.4 10.11-20.48 8.23-18.75L8.23-18.75 8.23-5.4Q9.94-3.93 11.6-3.32 13.26-2.71 14.53-2.71ZM38.47 0.61L38.47 0.61Q35.35 0.61 33.25-1.21 31.15-3.03 31.15-6.42L31.15-6.42Q31.15-10.52 34.87-12.72 38.6-14.92 46.63-15.82L46.63-15.82Q46.63-17.48 46.18-18.97 45.73-20.46 44.59-21.41 43.45-22.36 41.35-22.36L41.35-22.36Q39.13-22.36 37.19-21.51 35.25-20.65 33.79-19.73L33.79-19.73 32.25-22.36Q33.91-23.51 36.44-24.56 38.96-25.61 41.99-25.61L41.99-25.61Q46.56-25.61 48.57-22.8 50.58-20 50.58-15.41L50.58-15.41 50.58 0 47.29 0 46.97-3.03 46.82-3.03Q45.02-1.54 42.91-0.46 40.79 0.61 38.47 0.61ZM39.55-2.56L39.55-2.56Q41.43-2.56 43.08-3.44 44.72-4.32 46.63-5.96L46.63-5.96 46.63-13.18Q42.31-12.65 39.77-11.77 37.23-10.89 36.13-9.64 35.03-8.4 35.03-6.74L35.03-6.74Q35.03-4.52 36.35-3.54 37.67-2.56 39.55-2.56ZM69.43 0.61L69.43 0.61Q67.7 0.61 65.82-0.23 63.94-1.07 62.28-2.56L62.28-2.56 62.1-2.56 61.76 0 58.56 0 58.56-36.74 62.52-36.74 62.52-26.64 62.37-22.05Q64.16-23.56 66.19-24.58 68.23-25.61 70.36-25.61L70.36-25.61Q75.24-25.61 77.78-22.14 80.32-18.68 80.32-12.87L80.32-12.87Q80.32-8.62 78.8-5.6 77.29-2.59 74.81-0.99 72.33 0.61 69.43 0.61ZM68.82-2.71L68.82-2.71Q72.02-2.71 74.13-5.43 76.24-8.15 76.24-12.82L76.24-12.82Q76.24-17.04 74.65-19.68 73.07-22.31 69.43-22.31L69.43-22.31Q67.79-22.31 66.1-21.4 64.4-20.48 62.52-18.75L62.52-18.75 62.52-5.4Q64.23-3.93 65.89-3.32 67.55-2.71 68.82-2.71ZM87.25 10.86L87.25 10.86Q86.42 10.86 85.69 10.71 84.95 10.55 84.37 10.3L84.37 10.3 85.2 7.2Q85.66 7.35 86.15 7.46 86.64 7.57 87.05 7.57L87.05 7.57Q89.23 7.57 90.62 5.98 92.01 4.39 92.81 2L92.81 2 93.45 0.1 83.34-24.98 87.42-24.98 92.67-10.86Q93.25-9.23 93.89-7.39 94.52-5.54 95.13-3.81L95.13-3.81 95.35-3.81Q95.89-5.54 96.43-7.37 96.97-9.2 97.45-10.86L97.45-10.86 102.09-24.98 105.97-24.98 96.48 2.2Q95.62 4.61 94.41 6.58 93.21 8.54 91.46 9.7 89.71 10.86 87.25 10.86ZM117.35 0.61L117.35 0.61Q114.57 0.61 112.17-0.33 109.78-1.27 108.07-2.93L108.07-2.93 109.93-5.25Q111.51-3.93 113.31-3.2 115.1-2.47 117.49-2.47L117.49-2.47Q120.01-2.47 121.28-3.67 122.55-4.88 122.55-6.54L122.55-6.54Q122.55-7.86 121.72-8.73 120.89-9.59 119.58-10.21 118.28-10.82 116.84-11.33L116.84-11.33Q114.98-12.01 113.3-12.92 111.61-13.82 110.54-15.19 109.46-16.55 109.46-18.6L109.46-18.6Q109.46-21.53 111.68-23.57 113.91-25.61 117.96-25.61L117.96-25.61Q120.28-25.61 122.24-24.82 124.21-24.02 125.65-22.83L125.65-22.83 123.84-20.51Q122.52-21.46 121.12-21.98 119.72-22.51 118.01-22.51L118.01-22.51Q115.54-22.51 114.41-21.37 113.27-20.24 113.27-18.8L113.27-18.8Q113.27-17.02 114.78-16.11 116.3-15.21 118.57-14.36L118.57-14.36Q120.55-13.67 122.33-12.78 124.11-11.89 125.23-10.47 126.36-9.06 126.36-6.74L126.36-6.74Q126.36-3.71 124.04-1.55 121.72 0.61 117.35 0.61ZM140.05 0.61L140.05 0.61Q136.12 0.61 134.58-1.66 133.04-3.93 133.04-7.62L133.04-7.62 133.04-21.73 129.33-21.73 129.33-24.78 133.26-24.98 133.73-33.08 137.02-33.08 137.02-24.98 143.88-24.98 143.88-21.73 137.02-21.73 137.02-7.52Q137.02-5.2 137.88-3.91 138.73-2.61 140.93-2.61L140.93-2.61Q141.59-2.61 142.32-2.75 143.05-2.88 143.81-3.22L143.81-3.22 144.69-0.44Q143.69 0 142.49 0.31 141.3 0.61 140.05 0.61ZM159.58 0.61L159.58 0.61Q156.28 0.61 153.59-0.95 150.89-2.51 149.29-5.44 147.69-8.37 147.69-12.45L147.69-12.45Q147.69-16.53 149.29-19.48 150.89-22.44 153.45-24.02 156.02-25.61 158.87-25.61L158.87-25.61Q163.58-25.61 166.17-22.46 168.76-19.31 168.76-13.89L168.76-13.89Q168.76-12.52 168.61-11.57L168.61-11.57 151.6-11.57Q151.79-7.5 154.09-5 156.38-2.51 160.04-2.51L160.04-2.51Q161.92-2.51 163.49-3.02 165.05-3.52 166.39-4.42L166.39-4.42 167.78-1.95Q166.15-0.83 164.17-0.11 162.19 0.61 159.58 0.61ZM151.55-14.43L151.55-14.43 165.27-14.43Q165.27-18.36 163.61-20.41 161.95-22.46 158.92-22.46L158.92-22.46Q156.21-22.46 154.07-20.36 151.94-18.26 151.55-14.43ZM178.94 10.64L174.98 10.64 174.98-24.98 178.28-24.98 178.64-22.09 178.74-22.09Q180.45-23.49 182.54-24.55 184.63-25.61 186.77-25.61L186.77-25.61Q191.66-25.61 194.2-22.14 196.74-18.68 196.74-12.87L196.74-12.87Q196.74-8.62 195.22-5.6 193.71-2.59 191.23-0.99 188.75 0.61 185.85 0.61L185.85 0.61Q184.14 0.61 182.38-0.15 180.62-0.9 178.84-2.29L178.84-2.29 178.94 2.1 178.94 10.64ZM185.24-2.71L185.24-2.71Q188.43-2.71 190.55-5.43 192.66-8.15 192.66-12.82L192.66-12.82Q192.66-17.04 191.07-19.68 189.48-22.31 185.85-22.31L185.85-22.31Q184.21-22.31 182.53-21.4 180.84-20.48 178.94-18.75L178.94-18.75 178.94-5.4Q180.72-3.93 182.34-3.32 183.97-2.71 185.24-2.71ZM209.97 0.61L209.97 0.61Q207.18 0.61 204.79-0.33 202.4-1.27 200.69-2.93L200.69-2.93 202.54-5.25Q204.13-3.93 205.92-3.2 207.72-2.47 210.11-2.47L210.11-2.47Q212.63-2.47 213.9-3.67 215.17-4.88 215.17-6.54L215.17-6.54Q215.17-7.86 214.34-8.73 213.51-9.59 212.2-10.21 210.89-10.82 209.45-11.33L209.45-11.33Q207.6-12.01 205.91-12.92 204.23-13.82 203.15-15.19 202.08-16.55 202.08-18.6L202.08-18.6Q202.08-21.53 204.3-23.57 206.52-25.61 210.58-25.61L210.58-25.61Q212.9-25.61 214.86-24.82 216.83-24.02 218.27-22.83L218.27-22.83 216.46-20.51Q215.14-21.46 213.74-21.98 212.33-22.51 210.62-22.51L210.62-22.51Q208.16-22.51 207.02-21.37 205.89-20.24 205.89-18.8L205.89-18.8Q205.89-17.02 207.4-16.11 208.92-15.21 211.19-14.36L211.19-14.36Q213.16-13.67 214.95-12.78 216.73-11.89 217.85-10.47 218.97-9.06 218.97-6.74L218.97-6.74Q218.97-3.71 216.65-1.55 214.34 0.61 209.97 0.61Z" fill="#0c0a0f" data-fill-palette-color="primary"></path></g></svg></g></svg></g><g transform="matrix(1,0,0,1,163.310208,108.3957839754406)"><svg viewBox="0 0 232.209792 28.977231340628496" height="28.977231340628496" width="232.209792"><g transform="matrix(1,0,0,1,0,0)"><svg width="232.209792" viewBox="1.9 -32.03 321.78000000000003 40.160000000000004" height="28.977231340628496" data-palette-color="#0c0a0f"><path d="M9.64 0.29L9.64 0.29Q5.62 0.29 3.89-0.98 2.17-2.25 2.05-5.13L2.05-5.13Q1.95-6.93 1.92-9.38 1.88-11.82 1.92-14.28 1.95-16.75 2.05-18.58L2.05-18.58Q2.17-21.53 3.94-22.8 5.71-24.07 9.64-24.07L9.64-24.07Q13.35-24.07 15.01-22.83 16.67-21.58 16.85-18.73L16.85-18.73Q16.89-17.87 16.94-15.75 16.99-13.62 16.8-11.23L16.8-11.23 5.1-11.23Q5.1-9.69 5.13-8.11 5.15-6.52 5.22-4.81L5.22-4.81Q5.25-3.47 6.25-2.95 7.25-2.44 9.55-2.44L9.55-2.44Q11.82-2.44 12.74-2.95 13.67-3.47 13.77-4.81L13.77-4.81Q13.84-6.15 13.77-8.47L13.77-8.47 16.8-8.47Q16.92-7.76 16.91-6.82 16.89-5.88 16.85-5.13L16.85-5.13Q16.67-2.25 15.1-0.98 13.53 0.29 9.64 0.29ZM5.1-13.82L5.1-13.82 13.82-13.82Q13.87-15.48 13.87-16.99 13.87-18.51 13.77-19.07L13.77-19.07Q13.67-20.29 12.72-20.81 11.77-21.34 9.64-21.34L9.64-21.34Q7.28-21.34 6.26-20.81 5.25-20.29 5.22-19.07L5.22-19.07Q5.15-17.65 5.11-16.36 5.08-15.06 5.1-13.82ZM26.46 0.27L26.46 0.27Q23.48 0.27 22.06-0.9 20.63-2.08 20.38-4.57L20.38-4.57Q20.36-5.05 20.32-5.54 20.29-6.03 20.33-6.49L20.33-6.49Q20.51-8.67 21.7-10.14 22.9-11.62 26.24-12.84L26.24-12.84Q27.61-13.33 29.12-13.72 30.64-14.11 32.13-14.48L32.13-14.48 32.13-18.99Q32.13-20.19 31.22-20.76 30.32-21.34 28.07-21.34L28.07-21.34Q26.12-21.34 25.11-20.85 24.09-20.36 24-19.07L24-19.07Q23.95-18.46 23.95-17.32 23.95-16.19 24-15.41L24-15.41 20.94-15.41Q20.9-16.02 20.85-16.99 20.8-17.97 20.87-18.73L20.87-18.73Q20.99-21.56 22.71-22.81 24.44-24.07 28.2-24.07L28.2-24.07Q32.13-24.07 33.65-22.71 35.18-21.34 35.2-18.21L35.2-18.21 35.2 0 32.13 0 32.13-2.25 31.44-2.25Q30.83-1.03 29.7-0.38 28.56 0.27 26.46 0.27ZM27.24-2.37L27.24-2.37Q30.76-2.37 32.1-4.47L32.1-4.47 32.1-11.87Q30.93-11.62 29.7-11.29 28.46-10.96 26.8-10.4L26.8-10.4Q24.83-9.67 24.17-8.72 23.51-7.76 23.41-6.49L23.41-6.49Q23.43-6.13 23.45-5.7 23.46-5.27 23.51-4.81L23.51-4.81Q23.68-3.64 24.68-3 25.68-2.37 27.24-2.37ZM54.15-15.41L54.15-15.41 51.07-15.41Q51.17-16.26 51.15-17.36 51.14-18.46 51.14-19.07L51.14-19.07Q51.12-20.36 50.13-20.85 49.14-21.34 46.89-21.34L46.89-21.34Q44.6-21.34 43.62-20.85 42.65-20.36 42.62-19.07L42.62-19.07Q42.45-15.23 42.45-11.93 42.45-8.62 42.62-4.81L42.62-4.81Q42.65-3.47 43.62-2.95 44.6-2.44 46.87-2.44L46.87-2.44Q49.12-2.44 50.12-2.95 51.12-3.47 51.14-4.81L51.14-4.81Q51.14-5.47 51.15-6.41 51.17-7.35 51.07-8.47L51.07-8.47 54.15-8.47Q54.27-7.76 54.26-6.82 54.24-5.88 54.19-5.13L54.19-5.13Q54.05-2.25 52.4-0.98 50.75 0.29 46.87 0.29L46.87 0.29Q42.96 0.29 41.27-0.98 39.57-2.25 39.45-5.13L39.45-5.13Q39.35-6.93 39.31-9.38 39.28-11.82 39.31-14.28 39.35-16.75 39.45-18.58L39.45-18.58Q39.57-21.53 41.29-22.8 43.01-24.07 46.89-24.07L46.89-24.07Q50.75-24.07 52.45-22.83 54.15-21.58 54.19-18.73L54.19-18.73Q54.24-17.99 54.26-17.05 54.27-16.11 54.15-15.41ZM61.3-19.19L61.3 0 58.15 0 58.15-31.69 61.3-31.69 61.3-21.53 62.05-21.53Q62.91-22.83 64.04-23.45 65.18-24.07 67.16-24.07L67.16-24.07Q69.91-24.07 71.26-22.86 72.6-21.66 72.6-18.82L72.6-18.82 72.6 0 69.47 0 69.47-19.09Q69.47-20.31 68.71-20.86 67.94-21.41 66.23-21.41L66.23-21.41Q62.57-21.41 61.3-19.19L61.3-19.19ZM93.37 0.29L93.37 0.29Q89.44 0.29 87.91-0.98 86.39-2.25 86.27-5.13L86.27-5.13Q86.22-5.88 86.21-6.82 86.19-7.76 86.29-8.47L86.29-8.47 89.15-8.47Q89.1-7.35 89.11-6.41 89.12-5.47 89.15-4.81L89.15-4.81Q89.17-3.47 90.09-2.95 91-2.44 93.37-2.44L93.37-2.44Q95.79-2.44 96.78-2.95 97.77-3.47 97.84-4.81L97.84-4.81Q97.91-5.64 97.94-6.04 97.96-6.45 97.94-7.2L97.94-7.2Q97.86-8.45 97.28-9.13 96.69-9.81 94.74-10.11L94.74-10.11 91.88-10.77Q89.68-11.23 88.49-11.94 87.29-12.65 86.8-13.78 86.32-14.92 86.22-16.65L86.22-16.65Q86.14-17.53 86.34-18.58L86.34-18.58Q86.39-21.53 87.94-22.8 89.49-24.07 93.59-24.07L93.59-24.07Q97.52-24.07 99.05-22.83 100.57-21.58 100.72-18.73L100.72-18.73Q100.72-17.99 100.71-17.05 100.7-16.11 100.62-15.41L100.62-15.41 97.67-15.41Q97.79-16.26 97.78-17.36 97.77-18.46 97.72-19.07L97.72-19.07Q97.69-20.36 96.83-20.85 95.96-21.34 93.59-21.34L93.59-21.34Q91.2-21.34 90.33-20.85 89.47-20.36 89.37-19.07L89.37-19.07Q89.34-18.46 89.29-18.05 89.25-17.65 89.27-16.94L89.27-16.94Q89.34-16.09 89.53-15.43 89.71-14.77 90.36-14.34 91-13.92 92.47-13.7L92.47-13.7 95.2-13.13Q98.18-12.52 99.55-11.24 100.92-9.96 100.92-7.37L100.92-7.37Q100.92-6.84 100.9-6.23 100.89-5.62 100.84-5.05L100.84-5.05Q100.67-2.2 99.05-0.95 97.42 0.29 93.37 0.29ZM112.27 0.29L112.27 0.29Q108.46 0.29 107.13-0.98 105.8-2.25 105.8-5.13L105.8-5.13 105.8-21.02 103.45-21.02 103.45-23.75 105.87-23.75 105.87-30.49 108.97-30.49 108.97-23.75 114.34-23.75 114.34-21.02 108.94-21.02 108.94-4.79Q108.94-3.44 109.51-2.93 110.07-2.42 112.34-2.42L112.34-2.42Q113.27-2.42 113.77-2.45 114.27-2.49 114.93-2.51L114.93-2.51 114.93 0.1Q114.34 0.2 113.66 0.24 112.97 0.29 112.27 0.29ZM124.81 0.29L124.81 0.29Q120.78 0.29 119.06-0.98 117.34-2.25 117.22-5.13L117.22-5.13Q117.12-6.93 117.08-9.38 117.05-11.82 117.08-14.28 117.12-16.75 117.22-18.58L117.22-18.58Q117.34-21.53 119.11-22.8 120.88-24.07 124.81-24.07L124.81-24.07Q128.52-24.07 130.18-22.83 131.84-21.58 132.01-18.73L132.01-18.73Q132.06-17.87 132.11-15.75 132.16-13.62 131.96-11.23L131.96-11.23 120.27-11.23Q120.27-9.69 120.3-8.11 120.32-6.52 120.39-4.81L120.39-4.81Q120.42-3.47 121.42-2.95 122.42-2.44 124.71-2.44L124.71-2.44Q126.98-2.44 127.91-2.95 128.84-3.47 128.94-4.81L128.94-4.81Q129.01-6.15 128.94-8.47L128.94-8.47 131.96-8.47Q132.09-7.76 132.07-6.82 132.06-5.88 132.01-5.13L132.01-5.13Q131.84-2.25 130.27-0.98 128.69 0.29 124.81 0.29ZM120.27-13.82L120.27-13.82 128.99-13.82Q129.04-15.48 129.04-16.99 129.04-18.51 128.94-19.07L128.94-19.07Q128.84-20.29 127.89-20.81 126.94-21.34 124.81-21.34L124.81-21.34Q122.44-21.34 121.43-20.81 120.42-20.29 120.39-19.07L120.39-19.07Q120.32-17.65 120.28-16.36 120.25-15.06 120.27-13.82ZM139.26-2.25L139.26 7.91 136.11 7.91 136.11-23.75 139.26-23.75 139.26-21.53 139.95-21.53Q140.78-22.83 141.94-23.45 143.1-24.07 145.12-24.07L145.12-24.07Q147.9-24.07 149.24-22.86 150.57-21.66 150.64-18.82L150.64-18.82Q150.71-17.58 150.74-15.81 150.76-14.04 150.76-12.07 150.76-10.11 150.74-8.25 150.71-6.4 150.64-4.96L150.64-4.96Q150.57-2.15 149.17-0.93 147.78 0.29 145 0.29L145 0.29Q143.17 0.29 142-0.31 140.82-0.9 139.95-2.25L139.95-2.25 139.26-2.25ZM144.12-2.37L144.12-2.37Q147.42-2.37 147.51-4.69L147.51-4.69Q147.71-8.47 147.67-12.16 147.64-15.84 147.51-19.09L147.51-19.09Q147.47-20.31 146.73-20.86 146-21.41 144.27-21.41L144.27-21.41Q140.53-21.41 139.26-19.19L139.26-19.19 139.26-4.59Q139.92-3.39 141.06-2.88 142.19-2.37 144.12-2.37ZM171.95 0.29L171.95 0.29Q167.97 0.29 166.33-1.07 164.7-2.44 164.57-5.62L164.57-5.62Q164.43-7.42 164.38-9.63 164.33-11.84 164.38-14.09 164.43-16.33 164.57-18.16L164.57-18.16Q164.7-21.34 166.34-22.71 167.99-24.07 171.95-24.07L171.95-24.07Q175.95-24.07 177.55-22.71 179.15-21.34 179.27-18.16L179.27-18.16Q179.42-16.36 179.47-14.15 179.52-11.94 179.47-9.7 179.42-7.47 179.27-5.62L179.27-5.62Q179.15-2.47 177.55-1.09 175.95 0.29 171.95 0.29ZM171.95-2.44L171.95-2.44Q174.19-2.44 175.15-2.99 176.1-3.54 176.17-4.81L176.17-4.81Q176.42-8.62 176.42-11.89 176.42-15.16 176.17-18.97L176.17-18.97Q176.1-20.26 175.17-20.8 174.24-21.34 171.95-21.34L171.95-21.34Q169.65-21.34 168.71-20.8 167.77-20.26 167.7-18.97L167.7-18.97Q167.48-15.16 167.47-11.88 167.46-8.59 167.7-4.81L167.7-4.81Q167.75-3.54 168.74-2.99 169.73-2.44 171.95-2.44ZM187.64-21.02L187.64 0 184.52 0 184.52-21.02 182.25-21.02 182.25-23.75 184.52-23.75 184.52-26.61Q184.52-29.52 185.93-30.77 187.35-32.03 190.6-32.03L190.6-32.03Q191.28-32.03 192.12-31.96 192.97-31.88 193.62-31.76L193.62-31.76 193.62-29.13Q192.31-29.2 190.67-29.2L190.67-29.2Q189.01-29.2 188.33-28.66 187.64-28.13 187.64-26.88L187.64-26.88 187.64-23.75 192.84-23.75 192.84-21.02 187.64-21.02ZM212.86 0.29L212.86 0.29Q209.05 0.29 207.72-0.98 206.39-2.25 206.39-5.13L206.39-5.13 206.39-21.02 204.04-21.02 204.04-23.75 206.46-23.75 206.46-30.49 209.56-30.49 209.56-23.75 214.93-23.75 214.93-21.02 209.54-21.02 209.54-4.79Q209.54-3.44 210.1-2.93 210.66-2.42 212.93-2.42L212.93-2.42Q213.86-2.42 214.36-2.45 214.86-2.49 215.52-2.51L215.52-2.51 215.52 0.1Q214.93 0.2 214.25 0.24 213.57 0.29 212.86 0.29ZM221.21-19.19L221.21 0 218.06 0 218.06-31.69 221.21-31.69 221.21-21.53 221.96-21.53Q222.82-22.83 223.95-23.45 225.09-24.07 227.06-24.07L227.06-24.07Q229.82-24.07 231.17-22.86 232.51-21.66 232.51-18.82L232.51-18.82 232.51 0 229.38 0 229.38-19.09Q229.38-20.31 228.61-20.86 227.85-21.41 226.14-21.41L226.14-21.41Q222.47-21.41 221.21-19.19L221.21-19.19ZM244.3 0.29L244.3 0.29Q240.27 0.29 238.55-0.98 236.83-2.25 236.71-5.13L236.71-5.13Q236.61-6.93 236.57-9.38 236.53-11.82 236.57-14.28 236.61-16.75 236.71-18.58L236.71-18.58Q236.83-21.53 238.6-22.8 240.37-24.07 244.3-24.07L244.3-24.07Q248.01-24.07 249.67-22.83 251.33-21.58 251.5-18.73L251.5-18.73Q251.55-17.87 251.6-15.75 251.65-13.62 251.45-11.23L251.45-11.23 239.76-11.23Q239.76-9.69 239.78-8.11 239.81-6.52 239.88-4.81L239.88-4.81Q239.9-3.47 240.9-2.95 241.91-2.44 244.2-2.44L244.2-2.44Q246.47-2.44 247.4-2.95 248.33-3.47 248.42-4.81L248.42-4.81Q248.5-6.15 248.42-8.47L248.42-8.47 251.45-8.47Q251.57-7.76 251.56-6.82 251.55-5.88 251.5-5.13L251.5-5.13Q251.33-2.25 249.75-0.98 248.18 0.29 244.3 0.29ZM239.76-13.82L239.76-13.82 248.47-13.82Q248.52-15.48 248.52-16.99 248.52-18.51 248.42-19.07L248.42-19.07Q248.33-20.29 247.37-20.81 246.42-21.34 244.3-21.34L244.3-21.34Q241.93-21.34 240.92-20.81 239.9-20.29 239.88-19.07L239.88-19.07Q239.81-17.65 239.77-16.36 239.73-15.06 239.76-13.82ZM273.71-9.18L272.88 0 266.75 0 263.87-23.75 266.93-23.75 268.12-11.82 269.02-2.71 270.54-2.71 271.22-11.82 272.54-23.68 278.79-23.68 280.06-11.82 280.77-2.71 282.28-2.71 283.23-11.82 284.43-23.75 287.58-23.75 284.53 0 278.4 0 277.59-9.18 276.52-21 274.79-21 273.71-9.18ZM296.15 0.27L296.15 0.27Q293.17 0.27 291.74-0.9 290.31-2.08 290.07-4.57L290.07-4.57Q290.04-5.05 290.01-5.54 289.97-6.03 290.02-6.49L290.02-6.49Q290.19-8.67 291.39-10.14 292.58-11.62 295.93-12.84L295.93-12.84Q297.29-13.33 298.81-13.72 300.32-14.11 301.81-14.48L301.81-14.48 301.81-18.99Q301.81-20.19 300.91-20.76 300-21.34 297.76-21.34L297.76-21.34Q295.8-21.34 294.79-20.85 293.78-20.36 293.68-19.07L293.68-19.07Q293.63-18.46 293.63-17.32 293.63-16.19 293.68-15.41L293.68-15.41 290.63-15.41Q290.58-16.02 290.53-16.99 290.48-17.97 290.56-18.73L290.56-18.73Q290.68-21.56 292.4-22.81 294.12-24.07 297.88-24.07L297.88-24.07Q301.81-24.07 303.34-22.71 304.86-21.34 304.89-18.21L304.89-18.21 304.89 0 301.81 0 301.81-2.25 301.13-2.25Q300.52-1.03 299.38-0.38 298.25 0.27 296.15 0.27ZM296.93-2.37L296.93-2.37Q300.44-2.37 301.79-4.47L301.79-4.47 301.79-11.87Q300.61-11.62 299.38-11.29 298.15-10.96 296.49-10.4L296.49-10.4Q294.51-9.67 293.85-8.72 293.19-7.76 293.09-6.49L293.09-6.49Q293.12-6.13 293.13-5.7 293.14-5.27 293.19-4.81L293.19-4.81Q293.36-3.64 294.36-3 295.37-2.37 296.93-2.37ZM311.57 8.13L311.57 8.13Q310.79 8.13 309.71 8.06 308.62 7.98 307.91 7.91L307.91 7.91 307.91 5.2Q309.43 5.32 311.48 5.32L311.48 5.32Q313.65 5.32 314.42 4.8 315.19 4.27 315.46 2.95L315.46 2.95 316.16 0 312.87 0 308.47-23.75 311.7-23.75 313.33-12.43 315.21-2.71 316.7-2.71 318.7-12.43 320.44-23.75 323.68-23.75 318.56 2.71Q318.09 5.59 316.6 6.86 315.11 8.13 311.57 8.13Z" opacity="1" transform="matrix(1,0,0,1,0,0)" fill="#0c0a0f" class="slogan-text-1" data-fill-palette-color="secondary" id="text-1"></path></svg></g></svg></g></svg></g></svg></g><g transform="matrix(1,0,0,1,416.22232178101194,0)"><svg viewBox="0 0 103.02604889865327 189.84950716680748" height="189.84950716680748" width="103.02604889865327"><g><svg xmlns="http://www.w3.org/2000/svg" xmlns:xlink="http://www.w3.org/1999/xlink" version="1.0" x="0" y="0" viewBox="24.901629903057614 3.75 50.19717809829321 92.5" enable-background="new 0 0 100 100" xml:space="preserve" height="189.84950716680748" width="103.02604889865327" class="icon-icon-0" data-fill-palette-color="accent" id="icon-0"><path fill="#f98d67" d="M45 26.25C45.33 26.25 45.65 26.12 45.88 25.88 46.12 25.65 46.25 25.33 46.25 25S46.12 24.35 45.88 24.12C45.42 23.65 44.58 23.65 44.12 24.12 43.88 24.35 43.75 24.67 43.75 25S43.88 25.65 44.12 25.89C44.35 26.12 44.67 26.25 45 26.25M54.12 24.12C53.88 24.35 53.75 24.67 53.75 25S53.88 25.65 54.12 25.88C54.349 26.12 54.67 26.25 55 26.25S55.65 26.12 55.88 25.88C56.12 25.65 56.25 25.33 56.25 25S56.12 24.35 55.88 24.11C55.42 23.65 54.58 23.65 54.12 24.12M66.25 27.5C66.25 18.54 58.96 11.25 50 11.25S33.75 18.54 33.75 27.5C33.75 34.88 38.122 39.246 42.75 43.869 44.854 45.971 47.029 48.143 49.003 50.754 55.873 59.842 55.872 72.588 49 81.75A1.25 1.25 0 0 0 51 83.25C58.337 73.467 58.509 59.966 51.559 50.057 53.38 47.759 55.341 45.776 57.25 43.869 61.878 39.246 66.25 34.88 66.25 27.5M50 48.005C48.211 45.815 46.341 43.922 44.517 42.1 39.898 37.487 36.25 33.843 36.25 27.5 36.25 19.918 42.418 13.75 50 13.75S63.75 19.918 63.75 27.5C63.75 33.843 60.102 37.487 55.482 42.1 53.659 43.922 51.789 45.815 50 48.005M50 28.75C46.554 28.75 43.75 31.554 43.75 35S46.554 41.25 50 41.25C53.445 41.25 56.25 38.446 56.25 35S53.445 28.75 50 28.75M50 38.75C47.932 38.75 46.25 37.068 46.25 35S47.932 31.25 50 31.25 53.75 32.932 53.75 35 52.068 38.75 50 38.75M66.773 51.482A1.25 1.25 0 0 0 66.482 53.226C66.601 53.394 78.372 70.198 68.96 84.316 65.021 90.225 57.936 93.75 50 93.75 42.065 93.75 34.978 90.225 31.04 84.316 21.645 70.224 33.398 53.394 33.518 53.224A1.249 1.249 0 0 0 31.482 51.773C31.352 51.956 18.601 70.166 28.96 85.704 33.362 92.309 41.228 96.25 50 96.25S66.639 92.309 71.04 85.704C81.398 70.166 68.646 51.956 68.518 51.773A1.253 1.253 0 0 0 66.773 51.482M32.5 46.25A1.25 1.25 0 0 0 33.461 44.201C32.976 43.616 21.688 29.711 31.04 15.682 34.978 9.776 42.065 6.25 50 6.25S65.021 9.776 68.959 15.682C78.313 29.721 67.023 43.616 66.539 44.201A1.25 1.25 0 0 0 68.46 45.801C68.591 45.644 81.438 29.904 71.04 14.297 66.639 7.692 58.771 3.75 50 3.75 41.228 3.75 33.362 7.692 28.96 14.296 18.563 29.892 31.409 45.643 31.54 45.8 31.787 46.097 32.142 46.25 32.5 46.25M48.94 33.94C48.66 34.22 48.5 34.61 48.5 35S48.66 35.78 48.94 36.06A1.499 1.499 0 1 0 51.061 33.94C50.5 33.38 49.49 33.38 48.94 33.94" data-fill-palette-color="accent"></path></svg></g></svg></g></svg></g><defs></defs></svg><rect width="395.52" height="144.61148327981905" fill="none" stroke="none" visibility="hidden"></rect></g></svg></g></svg>